<svg xmlns="http://www.w3.org/2000/svg" width="1200" height="780" viewBox="0 0 1200 780" role="img">
<defs>
    <linearGradient id="bgH" x1="0" y1="0" x2="0" y2="1">
      <stop offset="0" stop-color="#0A1C26"/><stop offset="1" stop-color="#08161E"/></linearGradient>
    <radialGradient id="glowH" cx="0.5" cy="0.46" r="0.55">
      <stop offset="0" stop-color="#0E2A33"/><stop offset="1" stop-color="#08161E" stop-opacity="0"/></radialGradient>
    <linearGradient id="helixF" x1="0" y1="0" x2="0" y2="1">
      <stop offset="0" stop-color="#23A39C"/><stop offset="0.5" stop-color="#0C6B73"/><stop offset="1" stop-color="#0B5560"/></linearGradient>
    <linearGradient id="helixB" x1="0" y1="0" x2="0" y2="1">
      <stop offset="0" stop-color="#1E4E6B"/><stop offset="1" stop-color="#12354C"/></linearGradient>
    <linearGradient id="headG" x1="0" y1="0" x2="0" y2="1">
      <stop offset="0" stop-color="#5C8C99"/><stop offset="1" stop-color="#2E5560"/></linearGradient></defs>

<rect width="1200" height="780" fill="url(#bgH)"/>
<rect width="1200" height="780" fill="url(#glowH)"/>
<g><g><line x1="22" y1="300" x2="18" y2="313" stroke="#2A4A54" stroke-width="2" stroke-linecap="round" opacity="0.7"/><line x1="22" y1="300" x2="26" y2="313" stroke="#2A4A54" stroke-width="2" stroke-linecap="round" opacity="0.7"/><circle cx="22" cy="300" r="6.5" fill="url(#headG)"/></g><g><line x1="22" y1="470" x2="18" y2="457" stroke="#2A4A54" stroke-width="2" stroke-linecap="round" opacity="0.7"/><line x1="22" y1="470" x2="26" y2="457" stroke="#2A4A54" stroke-width="2" stroke-linecap="round" opacity="0.7"/><circle cx="22" cy="470" r="6.5" fill="url(#headG)"/></g><g><line x1="46" y1="300" x2="42" y2="313" stroke="#2A4A54" stroke-width="2" stroke-linecap="round" opacity="0.7"/><line x1="46" y1="300" x2="50" y2="313" stroke="#2A4A54" stroke-width="2" stroke-linecap="round" opacity="0.7"/><circle cx="46" cy="300" r="6.5" fill="url(#headG)"/></g><g><line x1="46" y1="470" x2="42" y2="457" stroke="#2A4A54" stroke-width="2" stroke-linecap="round" opacity="0.7"/><line x1="46" y1="470" x2="50" y2="457" stroke="#2A4A54" stroke-width="2" stroke-linecap="round" opacity="0.7"/><circle cx="46" cy="470" r="6.5" fill="url(#headG)"/></g><g><line x1="70" y1="300" x2="66" y2="313" stroke="#2A4A54" stroke-width="2" stroke-linecap="round" opacity="0.7"/><line x1="70" y1="300" x2="74" y2="313" stroke="#2A4A54" stroke-width="2" stroke-linecap="round" opacity="0.7"/><circle cx="70" cy="300" r="6.5" fill="url(#headG)"/></g><g><line x1="70" y1="470" x2="66" y2="457" stroke="#2A4A54" stroke-width="2" stroke-linecap="round" opacity="0.7"/><line x1="70" y1="470" x2="74" y2="457" stroke="#2A4A54" stroke-width="2" stroke-linecap="round" opacity="0.7"/><circle cx="70" cy="470" r="6.5" fill="url(#headG)"/></g><g><line x1="94" y1="300" x2="90" y2="313" stroke="#2A4A54" stroke-width="2" stroke-linecap="round" opacity="0.7"/><line x1="94" y1="300" x2="98" y2="313" stroke="#2A4A54" stroke-width="2" stroke-linecap="round" opacity="0.7"/><circle cx="94" cy="300" r="6.5" fill="url(#headG)"/></g><g><line x1="94" y1="470" x2="90" y2="457" stroke="#2A4A54" stroke-width="2" stroke-linecap="round" opacity="0.7"/><line x1="94" y1="470" x2="98" y2="457" stroke="#2A4A54" stroke-width="2" stroke-linecap="round" opacity="0.7"/><circle cx="94" cy="470" r="6.5" fill="url(#headG)"/></g><g><line x1="118" y1="300" x2="114" y2="313" stroke="#2A4A54" stroke-width="2" stroke-linecap="round" opacity="0.7"/><line x1="118" y1="300" x2="122" y2="313" stroke="#2A4A54" stroke-width="2" stroke-linecap="round" opacity="0.7"/><circle cx="118" cy="300" r="6.5" fill="url(#headG)"/></g><g><line x1="118" y1="470" x2="114" y2="457" stroke="#2A4A54" stroke-width="2" stroke-linecap="round" opacity="0.7"/><line x1="118" y1="470" x2="122" y2="457" stroke="#2A4A54" stroke-width="2" stroke-linecap="round" opacity="0.7"/><circle cx="118" cy="470" r="6.5" fill="url(#headG)"/></g><g><line x1="142" y1="300" x2="138" y2="313" stroke="#2A4A54" stroke-width="2" stroke-linecap="round" opacity="0.7"/><line x1="142" y1="300" x2="146" y2="313" stroke="#2A4A54" stroke-width="2" stroke-linecap="round" opacity="0.7"/><circle cx="142" cy="300" r="6.5" fill="url(#headG)"/></g><g><line x1="142" y1="470" x2="138" y2="457" stroke="#2A4A54" stroke-width="2" stroke-linecap="round" opacity="0.7"/><line x1="142" y1="470" x2="146" y2="457" stroke="#2A4A54" stroke-width="2" stroke-linecap="round" opacity="0.7"/><circle cx="142" cy="470" r="6.5" fill="url(#headG)"/></g><g><line x1="166" y1="300" x2="162" y2="313" stroke="#2A4A54" stroke-width="2" stroke-linecap="round" opacity="0.7"/><line x1="166" y1="300" x2="170" y2="313" stroke="#2A4A54" stroke-width="2" stroke-linecap="round" opacity="0.7"/><circle cx="166" cy="300" r="6.5" fill="url(#headG)"/></g><g><line x1="166" y1="470" x2="162" y2="457" stroke="#2A4A54" stroke-width="2" stroke-linecap="round" opacity="0.7"/><line x1="166" y1="470" x2="170" y2="457" stroke="#2A4A54" stroke-width="2" stroke-linecap="round" opacity="0.7"/><circle cx="166" cy="470" r="6.5" fill="url(#headG)"/></g><g><line x1="190" y1="300" x2="186" y2="313" stroke="#2A4A54" stroke-width="2" stroke-linecap="round" opacity="0.7"/><line x1="190" y1="300" x2="194" y2="313" stroke="#2A4A54" stroke-width="2" stroke-linecap="round" opacity="0.7"/><circle cx="190" cy="300" r="6.5" fill="url(#headG)"/></g><g><line x1="190" y1="470" x2="186" y2="457" stroke="#2A4A54" stroke-width="2" stroke-linecap="round" opacity="0.7"/><line x1="190" y1="470" x2="194" y2="457" stroke="#2A4A54" stroke-width="2" stroke-linecap="round" opacity="0.7"/><circle cx="190" cy="470" r="6.5" fill="url(#headG)"/></g><g><line x1="214" y1="300" x2="210" y2="313" stroke="#2A4A54" stroke-width="2" stroke-linecap="round" opacity="0.7"/><line x1="214" y1="300" x2="218" y2="313" stroke="#2A4A54" stroke-width="2" stroke-linecap="round" opacity="0.7"/><circle cx="214" cy="300" r="6.5" fill="url(#headG)"/></g><g><line x1="214" y1="470" x2="210" y2="457" stroke="#2A4A54" stroke-width="2" stroke-linecap="round" opacity="0.7"/><line x1="214" y1="470" x2="218" y2="457" stroke="#2A4A54" stroke-width="2" stroke-linecap="round" opacity="0.7"/><circle cx="214" cy="470" r="6.5" fill="url(#headG)"/></g><g><line x1="238" y1="300" x2="234" y2="313" stroke="#2A4A54" stroke-width="2" stroke-linecap="round" opacity="0.7"/><line x1="238" y1="300" x2="242" y2="313" stroke="#2A4A54" stroke-width="2" stroke-linecap="round" opacity="0.7"/><circle cx="238" cy="300" r="6.5" fill="url(#headG)"/></g><g><line x1="238" y1="470" x2="234" y2="457" stroke="#2A4A54" stroke-width="2" stroke-linecap="round" opacity="0.7"/><line x1="238" y1="470" x2="242" y2="457" stroke="#2A4A54" stroke-width="2" stroke-linecap="round" opacity="0.7"/><circle cx="238" cy="470" r="6.5" fill="url(#headG)"/></g><g><line x1="262" y1="300" x2="258" y2="313" stroke="#2A4A54" stroke-width="2" stroke-linecap="round" opacity="0.7"/><line x1="262" y1="300" x2="266" y2="313" stroke="#2A4A54" stroke-width="2" stroke-linecap="round" opacity="0.7"/><circle cx="262" cy="300" r="6.5" fill="url(#headG)"/></g><g><line x1="262" y1="470" x2="258" y2="457" stroke="#2A4A54" stroke-width="2" stroke-linecap="round" opacity="0.7"/><line x1="262" y1="470" x2="266" y2="457" stroke="#2A4A54" stroke-width="2" stroke-linecap="round" opacity="0.7"/><circle cx="262" cy="470" r="6.5" fill="url(#headG)"/></g><g><line x1="286" y1="300" x2="282" y2="313" stroke="#2A4A54" stroke-width="2" stroke-linecap="round" opacity="0.7"/><line x1="286" y1="300" x2="290" y2="313" stroke="#2A4A54" stroke-width="2" stroke-linecap="round" opacity="0.7"/><circle cx="286" cy="300" r="6.5" fill="url(#headG)"/></g><g><line x1="286" y1="470" x2="282" y2="457" stroke="#2A4A54" stroke-width="2" stroke-linecap="round" opacity="0.7"/><line x1="286" y1="470" x2="290" y2="457" stroke="#2A4A54" stroke-width="2" stroke-linecap="round" opacity="0.7"/><circle cx="286" cy="470" r="6.5" fill="url(#headG)"/></g><g><line x1="310" y1="300" x2="306" y2="313" stroke="#2A4A54" stroke-width="2" stroke-linecap="round" opacity="0.7"/><line x1="310" y1="300" x2="314" y2="313" stroke="#2A4A54" stroke-width="2" stroke-linecap="round" opacity="0.7"/><circle cx="310" cy="300" r="6.5" fill="url(#headG)"/></g><g><line x1="310" y1="470" x2="306" y2="457" stroke="#2A4A54" stroke-width="2" stroke-linecap="round" opacity="0.7"/><line x1="310" y1="470" x2="314" y2="457" stroke="#2A4A54" stroke-width="2" stroke-linecap="round" opacity="0.7"/><circle cx="310" cy="470" r="6.5" fill="url(#headG)"/></g><g><line x1="334" y1="300" x2="330" y2="313" stroke="#2A4A54" stroke-width="2" stroke-linecap="round" opacity="0.7"/><line x1="334" y1="300" x2="338" y2="313" stroke="#2A4A54" stroke-width="2" stroke-linecap="round" opacity="0.7"/><circle cx="334" cy="300" r="6.5" fill="url(#headG)"/></g><g><line x1="334" y1="470" x2="330" y2="457" stroke="#2A4A54" stroke-width="2" stroke-linecap="round" opacity="0.7"/><line x1="334" y1="470" x2="338" y2="457" stroke="#2A4A54" stroke-width="2" stroke-linecap="round" opacity="0.7"/><circle cx="334" cy="470" r="6.5" fill="url(#headG)"/></g><g><line x1="358" y1="300" x2="354" y2="313" stroke="#2A4A54" stroke-width="2" stroke-linecap="round" opacity="0.7"/><line x1="358" y1="300" x2="362" y2="313" stroke="#2A4A54" stroke-width="2" stroke-linecap="round" opacity="0.7"/><circle cx="358" cy="300" r="6.5" fill="url(#headG)"/></g><g><line x1="358" y1="470" x2="354" y2="457" stroke="#2A4A54" stroke-width="2" stroke-linecap="round" opacity="0.7"/><line x1="358" y1="470" x2="362" y2="457" stroke="#2A4A54" stroke-width="2" stroke-linecap="round" opacity="0.7"/><circle cx="358" cy="470" r="6.5" fill="url(#headG)"/></g><g><line x1="382" y1="300" x2="378" y2="313" stroke="#2A4A54" stroke-width="2" stroke-linecap="round" opacity="0.7"/><line x1="382" y1="300" x2="386" y2="313" stroke="#2A4A54" stroke-width="2" stroke-linecap="round" opacity="0.7"/><circle cx="382" cy="300" r="6.5" fill="url(#headG)"/></g><g><line x1="382" y1="470" x2="378" y2="457" stroke="#2A4A54" stroke-width="2" stroke-linecap="round" opacity="0.7"/><line x1="382" y1="470" x2="386" y2="457" stroke="#2A4A54" stroke-width="2" stroke-linecap="round" opacity="0.7"/><circle cx="382" cy="470" r="6.5" fill="url(#headG)"/></g><g><line x1="406" y1="300" x2="402" y2="313" stroke="#2A4A54" stroke-width="2" stroke-linecap="round" opacity="0.7"/><line x1="406" y1="300" x2="410" y2="313" stroke="#2A4A54" stroke-width="2" stroke-linecap="round" opacity="0.7"/><circle cx="406" cy="300" r="6.5" fill="url(#headG)"/></g><g><line x1="406" y1="470" x2="402" y2="457" stroke="#2A4A54" stroke-width="2" stroke-linecap="round" opacity="0.7"/><line x1="406" y1="470" x2="410" y2="457" stroke="#2A4A54" stroke-width="2" stroke-linecap="round" opacity="0.7"/><circle cx="406" cy="470" r="6.5" fill="url(#headG)"/></g><g><line x1="430" y1="300" x2="426" y2="313" stroke="#2A4A54" stroke-width="2" stroke-linecap="round" opacity="0.7"/><line x1="430" y1="300" x2="434" y2="313" stroke="#2A4A54" stroke-width="2" stroke-linecap="round" opacity="0.7"/><circle cx="430" cy="300" r="6.5" fill="url(#headG)"/></g><g><line x1="430" y1="470" x2="426" y2="457" stroke="#2A4A54" stroke-width="2" stroke-linecap="round" opacity="0.7"/><line x1="430" y1="470" x2="434" y2="457" stroke="#2A4A54" stroke-width="2" stroke-linecap="round" opacity="0.7"/><circle cx="430" cy="470" r="6.5" fill="url(#headG)"/></g><g><line x1="454" y1="300" x2="450" y2="313" stroke="#2A4A54" stroke-width="2" stroke-linecap="round" opacity="0.7"/><line x1="454" y1="300" x2="458" y2="313" stroke="#2A4A54" stroke-width="2" stroke-linecap="round" opacity="0.7"/><circle cx="454" cy="300" r="6.5" fill="url(#headG)"/></g><g><line x1="454" y1="470" x2="450" y2="457" stroke="#2A4A54" stroke-width="2" stroke-linecap="round" opacity="0.7"/><line x1="454" y1="470" x2="458" y2="457" stroke="#2A4A54" stroke-width="2" stroke-linecap="round" opacity="0.7"/><circle cx="454" cy="470" r="6.5" fill="url(#headG)"/></g><g opacity="0.28"><line x1="478" y1="300" x2="474" y2="313" stroke="#2A4A54" stroke-width="2" stroke-linecap="round" opacity="0.7"/><line x1="478" y1="300" x2="482" y2="313" stroke="#2A4A54" stroke-width="2" stroke-linecap="round" opacity="0.7"/><circle cx="478" cy="300" r="6.5" fill="url(#headG)"/></g><g opacity="0.28"><line x1="478" y1="470" x2="474" y2="457" stroke="#2A4A54" stroke-width="2" stroke-linecap="round" opacity="0.7"/><line x1="478" y1="470" x2="482" y2="457" stroke="#2A4A54" stroke-width="2" stroke-linecap="round" opacity="0.7"/><circle cx="478" cy="470" r="6.5" fill="url(#headG)"/></g><g opacity="0.28"><line x1="502" y1="300" x2="498" y2="313" stroke="#2A4A54" stroke-width="2" stroke-linecap="round" opacity="0.7"/><line x1="502" y1="300" x2="506" y2="313" stroke="#2A4A54" stroke-width="2" stroke-linecap="round" opacity="0.7"/><circle cx="502" cy="300" r="6.5" fill="url(#headG)"/></g><g opacity="0.28"><line x1="502" y1="470" x2="498" y2="457" stroke="#2A4A54" stroke-width="2" stroke-linecap="round" opacity="0.7"/><line x1="502" y1="470" x2="506" y2="457" stroke="#2A4A54" stroke-width="2" stroke-linecap="round" opacity="0.7"/><circle cx="502" cy="470" r="6.5" fill="url(#headG)"/></g><g opacity="0.28"><line x1="526" y1="300" x2="522" y2="313" stroke="#2A4A54" stroke-width="2" stroke-linecap="round" opacity="0.7"/><line x1="526" y1="300" x2="530" y2="313" stroke="#2A4A54" stroke-width="2" stroke-linecap="round" opacity="0.7"/><circle cx="526" cy="300" r="6.5" fill="url(#headG)"/></g><g opacity="0.28"><line x1="526" y1="470" x2="522" y2="457" stroke="#2A4A54" stroke-width="2" stroke-linecap="round" opacity="0.7"/><line x1="526" y1="470" x2="530" y2="457" stroke="#2A4A54" stroke-width="2" stroke-linecap="round" opacity="0.7"/><circle cx="526" cy="470" r="6.5" fill="url(#headG)"/></g><g opacity="0.28"><line x1="550" y1="300" x2="546" y2="313" stroke="#2A4A54" stroke-width="2" stroke-linecap="round" opacity="0.7"/><line x1="550" y1="300" x2="554" y2="313" stroke="#2A4A54" stroke-width="2" stroke-linecap="round" opacity="0.7"/><circle cx="550" cy="300" r="6.5" fill="url(#headG)"/></g><g opacity="0.28"><line x1="550" y1="470" x2="546" y2="457" stroke="#2A4A54" stroke-width="2" stroke-linecap="round" opacity="0.7"/><line x1="550" y1="470" x2="554" y2="457" stroke="#2A4A54" stroke-width="2" stroke-linecap="round" opacity="0.7"/><circle cx="550" cy="470" r="6.5" fill="url(#headG)"/></g><g opacity="0.28"><line x1="574" y1="300" x2="570" y2="313" stroke="#2A4A54" stroke-width="2" stroke-linecap="round" opacity="0.7"/><line x1="574" y1="300" x2="578" y2="313" stroke="#2A4A54" stroke-width="2" stroke-linecap="round" opacity="0.7"/><circle cx="574" cy="300" r="6.5" fill="url(#headG)"/></g><g opacity="0.28"><line x1="574" y1="470" x2="570" y2="457" stroke="#2A4A54" stroke-width="2" stroke-linecap="round" opacity="0.7"/><line x1="574" y1="470" x2="578" y2="457" stroke="#2A4A54" stroke-width="2" stroke-linecap="round" opacity="0.7"/><circle cx="574" cy="470" r="6.5" fill="url(#headG)"/></g><g opacity="0.28"><line x1="598" y1="300" x2="594" y2="313" stroke="#2A4A54" stroke-width="2" stroke-linecap="round" opacity="0.7"/><line x1="598" y1="300" x2="602" y2="313" stroke="#2A4A54" stroke-width="2" stroke-linecap="round" opacity="0.7"/><circle cx="598" cy="300" r="6.5" fill="url(#headG)"/></g><g opacity="0.28"><line x1="598" y1="470" x2="594" y2="457" stroke="#2A4A54" stroke-width="2" stroke-linecap="round" opacity="0.7"/><line x1="598" y1="470" x2="602" y2="457" stroke="#2A4A54" stroke-width="2" stroke-linecap="round" opacity="0.7"/><circle cx="598" cy="470" r="6.5" fill="url(#headG)"/></g><g opacity="0.28"><line x1="622" y1="300" x2="618" y2="313" stroke="#2A4A54" stroke-width="2" stroke-linecap="round" opacity="0.7"/><line x1="622" y1="300" x2="626" y2="313" stroke="#2A4A54" stroke-width="2" stroke-linecap="round" opacity="0.7"/><circle cx="622" cy="300" r="6.5" fill="url(#headG)"/></g><g opacity="0.28"><line x1="622" y1="470" x2="618" y2="457" stroke="#2A4A54" stroke-width="2" stroke-linecap="round" opacity="0.7"/><line x1="622" y1="470" x2="626" y2="457" stroke="#2A4A54" stroke-width="2" stroke-linecap="round" opacity="0.7"/><circle cx="622" cy="470" r="6.5" fill="url(#headG)"/></g><g opacity="0.28"><line x1="646" y1="300" x2="642" y2="313" stroke="#2A4A54" stroke-width="2" stroke-linecap="round" opacity="0.7"/><line x1="646" y1="300" x2="650" y2="313" stroke="#2A4A54" stroke-width="2" stroke-linecap="round" opacity="0.7"/><circle cx="646" cy="300" r="6.5" fill="url(#headG)"/></g><g opacity="0.28"><line x1="646" y1="470" x2="642" y2="457" stroke="#2A4A54" stroke-width="2" stroke-linecap="round" opacity="0.7"/><line x1="646" y1="470" x2="650" y2="457" stroke="#2A4A54" stroke-width="2" stroke-linecap="round" opacity="0.7"/><circle cx="646" cy="470" r="6.5" fill="url(#headG)"/></g><g opacity="0.28"><line x1="670" y1="300" x2="666" y2="313" stroke="#2A4A54" stroke-width="2" stroke-linecap="round" opacity="0.7"/><line x1="670" y1="300" x2="674" y2="313" stroke="#2A4A54" stroke-width="2" stroke-linecap="round" opacity="0.7"/><circle cx="670" cy="300" r="6.5" fill="url(#headG)"/></g><g opacity="0.28"><line x1="670" y1="470" x2="666" y2="457" stroke="#2A4A54" stroke-width="2" stroke-linecap="round" opacity="0.7"/><line x1="670" y1="470" x2="674" y2="457" stroke="#2A4A54" stroke-width="2" stroke-linecap="round" opacity="0.7"/><circle cx="670" cy="470" r="6.5" fill="url(#headG)"/></g><g opacity="0.28"><line x1="694" y1="300" x2="690" y2="313" stroke="#2A4A54" stroke-width="2" stroke-linecap="round" opacity="0.7"/><line x1="694" y1="300" x2="698" y2="313" stroke="#2A4A54" stroke-width="2" stroke-linecap="round" opacity="0.7"/><circle cx="694" cy="300" r="6.5" fill="url(#headG)"/></g><g opacity="0.28"><line x1="694" y1="470" x2="690" y2="457" stroke="#2A4A54" stroke-width="2" stroke-linecap="round" opacity="0.7"/><line x1="694" y1="470" x2="698" y2="457" stroke="#2A4A54" stroke-width="2" stroke-linecap="round" opacity="0.7"/><circle cx="694" cy="470" r="6.5" fill="url(#headG)"/></g><g opacity="0.28"><line x1="718" y1="300" x2="714" y2="313" stroke="#2A4A54" stroke-width="2" stroke-linecap="round" opacity="0.7"/><line x1="718" y1="300" x2="722" y2="313" stroke="#2A4A54" stroke-width="2" stroke-linecap="round" opacity="0.7"/><circle cx="718" cy="300" r="6.5" fill="url(#headG)"/></g><g opacity="0.28"><line x1="718" y1="470" x2="714" y2="457" stroke="#2A4A54" stroke-width="2" stroke-linecap="round" opacity="0.7"/><line x1="718" y1="470" x2="722" y2="457" stroke="#2A4A54" stroke-width="2" stroke-linecap="round" opacity="0.7"/><circle cx="718" cy="470" r="6.5" fill="url(#headG)"/></g><g><line x1="742" y1="300" x2="738" y2="313" stroke="#2A4A54" stroke-width="2" stroke-linecap="round" opacity="0.7"/><line x1="742" y1="300" x2="746" y2="313" stroke="#2A4A54" stroke-width="2" stroke-linecap="round" opacity="0.7"/><circle cx="742" cy="300" r="6.5" fill="url(#headG)"/></g><g><line x1="742" y1="470" x2="738" y2="457" stroke="#2A4A54" stroke-width="2" stroke-linecap="round" opacity="0.7"/><line x1="742" y1="470" x2="746" y2="457" stroke="#2A4A54" stroke-width="2" stroke-linecap="round" opacity="0.7"/><circle cx="742" cy="470" r="6.5" fill="url(#headG)"/></g><g><line x1="766" y1="300" x2="762" y2="313" stroke="#2A4A54" stroke-width="2" stroke-linecap="round" opacity="0.7"/><line x1="766" y1="300" x2="770" y2="313" stroke="#2A4A54" stroke-width="2" stroke-linecap="round" opacity="0.7"/><circle cx="766" cy="300" r="6.5" fill="url(#headG)"/></g><g><line x1="766" y1="470" x2="762" y2="457" stroke="#2A4A54" stroke-width="2" stroke-linecap="round" opacity="0.7"/><line x1="766" y1="470" x2="770" y2="457" stroke="#2A4A54" stroke-width="2" stroke-linecap="round" opacity="0.7"/><circle cx="766" cy="470" r="6.5" fill="url(#headG)"/></g><g><line x1="790" y1="300" x2="786" y2="313" stroke="#2A4A54" stroke-width="2" stroke-linecap="round" opacity="0.7"/><line x1="790" y1="300" x2="794" y2="313" stroke="#2A4A54" stroke-width="2" stroke-linecap="round" opacity="0.7"/><circle cx="790" cy="300" r="6.5" fill="url(#headG)"/></g><g><line x1="790" y1="470" x2="786" y2="457" stroke="#2A4A54" stroke-width="2" stroke-linecap="round" opacity="0.7"/><line x1="790" y1="470" x2="794" y2="457" stroke="#2A4A54" stroke-width="2" stroke-linecap="round" opacity="0.7"/><circle cx="790" cy="470" r="6.5" fill="url(#headG)"/></g><g><line x1="814" y1="300" x2="810" y2="313" stroke="#2A4A54" stroke-width="2" stroke-linecap="round" opacity="0.7"/><line x1="814" y1="300" x2="818" y2="313" stroke="#2A4A54" stroke-width="2" stroke-linecap="round" opacity="0.7"/><circle cx="814" cy="300" r="6.5" fill="url(#headG)"/></g><g><line x1="814" y1="470" x2="810" y2="457" stroke="#2A4A54" stroke-width="2" stroke-linecap="round" opacity="0.7"/><line x1="814" y1="470" x2="818" y2="457" stroke="#2A4A54" stroke-width="2" stroke-linecap="round" opacity="0.7"/><circle cx="814" cy="470" r="6.5" fill="url(#headG)"/></g><g><line x1="838" y1="300" x2="834" y2="313" stroke="#2A4A54" stroke-width="2" stroke-linecap="round" opacity="0.7"/><line x1="838" y1="300" x2="842" y2="313" stroke="#2A4A54" stroke-width="2" stroke-linecap="round" opacity="0.7"/><circle cx="838" cy="300" r="6.5" fill="url(#headG)"/></g><g><line x1="838" y1="470" x2="834" y2="457" stroke="#2A4A54" stroke-width="2" stroke-linecap="round" opacity="0.7"/><line x1="838" y1="470" x2="842" y2="457" stroke="#2A4A54" stroke-width="2" stroke-linecap="round" opacity="0.7"/><circle cx="838" cy="470" r="6.5" fill="url(#headG)"/></g><g><line x1="862" y1="300" x2="858" y2="313" stroke="#2A4A54" stroke-width="2" stroke-linecap="round" opacity="0.7"/><line x1="862" y1="300" x2="866" y2="313" stroke="#2A4A54" stroke-width="2" stroke-linecap="round" opacity="0.7"/><circle cx="862" cy="300" r="6.5" fill="url(#headG)"/></g><g><line x1="862" y1="470" x2="858" y2="457" stroke="#2A4A54" stroke-width="2" stroke-linecap="round" opacity="0.7"/><line x1="862" y1="470" x2="866" y2="457" stroke="#2A4A54" stroke-width="2" stroke-linecap="round" opacity="0.7"/><circle cx="862" cy="470" r="6.5" fill="url(#headG)"/></g><g><line x1="886" y1="300" x2="882" y2="313" stroke="#2A4A54" stroke-width="2" stroke-linecap="round" opacity="0.7"/><line x1="886" y1="300" x2="890" y2="313" stroke="#2A4A54" stroke-width="2" stroke-linecap="round" opacity="0.7"/><circle cx="886" cy="300" r="6.5" fill="url(#headG)"/></g><g><line x1="886" y1="470" x2="882" y2="457" stroke="#2A4A54" stroke-width="2" stroke-linecap="round" opacity="0.7"/><line x1="886" y1="470" x2="890" y2="457" stroke="#2A4A54" stroke-width="2" stroke-linecap="round" opacity="0.7"/><circle cx="886" cy="470" r="6.5" fill="url(#headG)"/></g><g><line x1="910" y1="300" x2="906" y2="313" stroke="#2A4A54" stroke-width="2" stroke-linecap="round" opacity="0.7"/><line x1="910" y1="300" x2="914" y2="313" stroke="#2A4A54" stroke-width="2" stroke-linecap="round" opacity="0.7"/><circle cx="910" cy="300" r="6.5" fill="url(#headG)"/></g><g><line x1="910" y1="470" x2="906" y2="457" stroke="#2A4A54" stroke-width="2" stroke-linecap="round" opacity="0.7"/><line x1="910" y1="470" x2="914" y2="457" stroke="#2A4A54" stroke-width="2" stroke-linecap="round" opacity="0.7"/><circle cx="910" cy="470" r="6.5" fill="url(#headG)"/></g><g><line x1="934" y1="300" x2="930" y2="313" stroke="#2A4A54" stroke-width="2" stroke-linecap="round" opacity="0.7"/><line x1="934" y1="300" x2="938" y2="313" stroke="#2A4A54" stroke-width="2" stroke-linecap="round" opacity="0.7"/><circle cx="934" cy="300" r="6.5" fill="url(#headG)"/></g><g><line x1="934" y1="470" x2="930" y2="457" stroke="#2A4A54" stroke-width="2" stroke-linecap="round" opacity="0.7"/><line x1="934" y1="470" x2="938" y2="457" stroke="#2A4A54" stroke-width="2" stroke-linecap="round" opacity="0.7"/><circle cx="934" cy="470" r="6.5" fill="url(#headG)"/></g><g><line x1="958" y1="300" x2="954" y2="313" stroke="#2A4A54" stroke-width="2" stroke-linecap="round" opacity="0.7"/><line x1="958" y1="300" x2="962" y2="313" stroke="#2A4A54" stroke-width="2" stroke-linecap="round" opacity="0.7"/><circle cx="958" cy="300" r="6.5" fill="url(#headG)"/></g><g><line x1="958" y1="470" x2="954" y2="457" stroke="#2A4A54" stroke-width="2" stroke-linecap="round" opacity="0.7"/><line x1="958" y1="470" x2="962" y2="457" stroke="#2A4A54" stroke-width="2" stroke-linecap="round" opacity="0.7"/><circle cx="958" cy="470" r="6.5" fill="url(#headG)"/></g><g><line x1="982" y1="300" x2="978" y2="313" stroke="#2A4A54" stroke-width="2" stroke-linecap="round" opacity="0.7"/><line x1="982" y1="300" x2="986" y2="313" stroke="#2A4A54" stroke-width="2" stroke-linecap="round" opacity="0.7"/><circle cx="982" cy="300" r="6.5" fill="url(#headG)"/></g><g><line x1="982" y1="470" x2="978" y2="457" stroke="#2A4A54" stroke-width="2" stroke-linecap="round" opacity="0.7"/><line x1="982" y1="470" x2="986" y2="457" stroke="#2A4A54" stroke-width="2" stroke-linecap="round" opacity="0.7"/><circle cx="982" cy="470" r="6.5" fill="url(#headG)"/></g><g><line x1="1006" y1="300" x2="1002" y2="313" stroke="#2A4A54" stroke-width="2" stroke-linecap="round" opacity="0.7"/><line x1="1006" y1="300" x2="1010" y2="313" stroke="#2A4A54" stroke-width="2" stroke-linecap="round" opacity="0.7"/><circle cx="1006" cy="300" r="6.5" fill="url(#headG)"/></g><g><line x1="1006" y1="470" x2="1002" y2="457" stroke="#2A4A54" stroke-width="2" stroke-linecap="round" opacity="0.7"/><line x1="1006" y1="470" x2="1010" y2="457" stroke="#2A4A54" stroke-width="2" stroke-linecap="round" opacity="0.7"/><circle cx="1006" cy="470" r="6.5" fill="url(#headG)"/></g><g><line x1="1030" y1="300" x2="1026" y2="313" stroke="#2A4A54" stroke-width="2" stroke-linecap="round" opacity="0.7"/><line x1="1030" y1="300" x2="1034" y2="313" stroke="#2A4A54" stroke-width="2" stroke-linecap="round" opacity="0.7"/><circle cx="1030" cy="300" r="6.5" fill="url(#headG)"/></g><g><line x1="1030" y1="470" x2="1026" y2="457" stroke="#2A4A54" stroke-width="2" stroke-linecap="round" opacity="0.7"/><line x1="1030" y1="470" x2="1034" y2="457" stroke="#2A4A54" stroke-width="2" stroke-linecap="round" opacity="0.7"/><circle cx="1030" cy="470" r="6.5" fill="url(#headG)"/></g><g><line x1="1054" y1="300" x2="1050" y2="313" stroke="#2A4A54" stroke-width="2" stroke-linecap="round" opacity="0.7"/><line x1="1054" y1="300" x2="1058" y2="313" stroke="#2A4A54" stroke-width="2" stroke-linecap="round" opacity="0.7"/><circle cx="1054" cy="300" r="6.5" fill="url(#headG)"/></g><g><line x1="1054" y1="470" x2="1050" y2="457" stroke="#2A4A54" stroke-width="2" stroke-linecap="round" opacity="0.7"/><line x1="1054" y1="470" x2="1058" y2="457" stroke="#2A4A54" stroke-width="2" stroke-linecap="round" opacity="0.7"/><circle cx="1054" cy="470" r="6.5" fill="url(#headG)"/></g><g><line x1="1078" y1="300" x2="1074" y2="313" stroke="#2A4A54" stroke-width="2" stroke-linecap="round" opacity="0.7"/><line x1="1078" y1="300" x2="1082" y2="313" stroke="#2A4A54" stroke-width="2" stroke-linecap="round" opacity="0.7"/><circle cx="1078" cy="300" r="6.5" fill="url(#headG)"/></g><g><line x1="1078" y1="470" x2="1074" y2="457" stroke="#2A4A54" stroke-width="2" stroke-linecap="round" opacity="0.7"/><line x1="1078" y1="470" x2="1082" y2="457" stroke="#2A4A54" stroke-width="2" stroke-linecap="round" opacity="0.7"/><circle cx="1078" cy="470" r="6.5" fill="url(#headG)"/></g><g><line x1="1102" y1="300" x2="1098" y2="313" stroke="#2A4A54" stroke-width="2" stroke-linecap="round" opacity="0.7"/><line x1="1102" y1="300" x2="1106" y2="313" stroke="#2A4A54" stroke-width="2" stroke-linecap="round" opacity="0.7"/><circle cx="1102" cy="300" r="6.5" fill="url(#headG)"/></g><g><line x1="1102" y1="470" x2="1098" y2="457" stroke="#2A4A54" stroke-width="2" stroke-linecap="round" opacity="0.7"/><line x1="1102" y1="470" x2="1106" y2="457" stroke="#2A4A54" stroke-width="2" stroke-linecap="round" opacity="0.7"/><circle cx="1102" cy="470" r="6.5" fill="url(#headG)"/></g><g><line x1="1126" y1="300" x2="1122" y2="313" stroke="#2A4A54" stroke-width="2" stroke-linecap="round" opacity="0.7"/><line x1="1126" y1="300" x2="1130" y2="313" stroke="#2A4A54" stroke-width="2" stroke-linecap="round" opacity="0.7"/><circle cx="1126" cy="300" r="6.5" fill="url(#headG)"/></g><g><line x1="1126" y1="470" x2="1122" y2="457" stroke="#2A4A54" stroke-width="2" stroke-linecap="round" opacity="0.7"/><line x1="1126" y1="470" x2="1130" y2="457" stroke="#2A4A54" stroke-width="2" stroke-linecap="round" opacity="0.7"/><circle cx="1126" cy="470" r="6.5" fill="url(#headG)"/></g><g><line x1="1150" y1="300" x2="1146" y2="313" stroke="#2A4A54" stroke-width="2" stroke-linecap="round" opacity="0.7"/><line x1="1150" y1="300" x2="1154" y2="313" stroke="#2A4A54" stroke-width="2" stroke-linecap="round" opacity="0.7"/><circle cx="1150" cy="300" r="6.5" fill="url(#headG)"/></g><g><line x1="1150" y1="470" x2="1146" y2="457" stroke="#2A4A54" stroke-width="2" stroke-linecap="round" opacity="0.7"/><line x1="1150" y1="470" x2="1154" y2="457" stroke="#2A4A54" stroke-width="2" stroke-linecap="round" opacity="0.7"/><circle cx="1150" cy="470" r="6.5" fill="url(#headG)"/></g><g><line x1="1174" y1="300" x2="1170" y2="313" stroke="#2A4A54" stroke-width="2" stroke-linecap="round" opacity="0.7"/><line x1="1174" y1="300" x2="1178" y2="313" stroke="#2A4A54" stroke-width="2" stroke-linecap="round" opacity="0.7"/><circle cx="1174" cy="300" r="6.5" fill="url(#headG)"/></g><g><line x1="1174" y1="470" x2="1170" y2="457" stroke="#2A4A54" stroke-width="2" stroke-linecap="round" opacity="0.7"/><line x1="1174" y1="470" x2="1178" y2="457" stroke="#2A4A54" stroke-width="2" stroke-linecap="round" opacity="0.7"/><circle cx="1174" cy="470" r="6.5" fill="url(#headG)"/></g></g>
<rect x="0" y="308" width="1200" height="154" fill="#0E2730" opacity="0.45"/>
<path d="M508,262 Q534,236 560,258" fill="none" stroke="#1E4E6B" stroke-width="5" stroke-linecap="round" opacity="0.85"/><path d="M640,258 Q666,236 692,262" fill="none" stroke="#1E4E6B" stroke-width="5" stroke-linecap="round" opacity="0.85"/><path d="M560,506 Q600,540 640,506" fill="none" stroke="#12354C" stroke-width="5" stroke-linecap="round" opacity="0.85"/>
<rect x="488.0" y="262" width="40" height="238" rx="20.0" fill="url(#helixB)"/>
<rect x="540.0" y="258" width="40" height="248" rx="20.0" fill="url(#helixB)"/>
<rect x="620.0" y="258" width="40" height="248" rx="20.0" fill="url(#helixB)"/>
<rect x="672.0" y="262" width="40" height="238" rx="20.0" fill="url(#helixB)"/>
<path d="M534,250 Q567,222 600,246" fill="none" stroke="#23A39C" stroke-width="5.5" stroke-linecap="round"/><path d="M600,246 Q633,222 666,250" fill="none" stroke="#23A39C" stroke-width="5.5" stroke-linecap="round"/>
<rect x="511.0" y="250" width="46" height="270" rx="23.0" fill="url(#helixF)"/><rect x="514.0" y="254" width="3.2" height="262" rx="1.6" fill="#FFFFFF" opacity="0.18"/>
<rect x="577.0" y="246" width="46" height="278" rx="23.0" fill="url(#helixF)"/><rect x="580.0" y="250" width="3.2" height="270" rx="1.6" fill="#FFFFFF" opacity="0.18"/>
<rect x="643.0" y="250" width="46" height="270" rx="23.0" fill="url(#helixF)"/><rect x="646.0" y="254" width="3.2" height="262" rx="1.6" fill="#FFFFFF" opacity="0.18"/>
<path d="M538.8,239.0 L570.2,137.5 L600.0,204.0 L629.8,137.5 L661.2,239.0" fill="none" stroke="#BFEEEC" stroke-width="9.8" stroke-linecap="round" stroke-linejoin="round"/>
<circle cx="538.8" cy="239.0" r="5.2" fill="#8FB3B9"/>
<circle cx="661.2" cy="239.0" r="5.2" fill="#8FB3B9"/>
<circle cx="570.2" cy="137.5" r="8.0" fill="#FBFDFD"/>
<circle cx="629.8" cy="137.5" r="8.0" fill="#FBFDFD"/>
<circle cx="600.0" cy="204.0" r="15.8" fill="#1FC8C2" opacity="0.18"/>
<circle cx="600.0" cy="204.0" r="9.8" fill="#1FC8C2"/>
<circle cx="600" cy="232" r="20" fill="#1FC8C2" opacity="0.10"/>
<circle cx="600" cy="232" r="11" fill="#1FC8C2" opacity="0.20"/>
<g opacity="0.95"><circle cx="566" cy="566" r="30" fill="#163E5C"/><circle cx="612" cy="582" r="24" fill="#12354C"/><circle cx="648" cy="560" r="20" fill="#1A4661"/><circle cx="566" cy="566" r="7" fill="#1FC8C2"/></g>
<path d="M554,600 A46,46 0 0 0 646,600" fill="none" stroke="#1FC8C2" stroke-width="2" opacity="0.22"/>
<path d="M536,600 A64,64 0 0 0 664,600" fill="none" stroke="#1FC8C2" stroke-width="2" opacity="0.17"/>
<path d="M518,600 A82,82 0 0 0 682,600" fill="none" stroke="#1FC8C2" stroke-width="2" opacity="0.12"/>
<text x="54" y="70" font-family="IBM Plex Mono, ui-monospace, monospace" font-size="15" letter-spacing="0.04em" fill="#8FB3B9" text-anchor="start">EXTRACELLULAR</text>
<text x="54" y="742" font-family="IBM Plex Mono, ui-monospace, monospace" font-size="15" letter-spacing="0.04em" fill="#8FB3B9" text-anchor="start">INTRACELLULAR</text>
<text x="1146" y="316" font-family="IBM Plex Mono, ui-monospace, monospace" font-size="15" letter-spacing="0.04em" fill="#8FB3B9" text-anchor="end">lipid bilayer</text>

<text x="600" y="104" font-family="IBM Plex Mono, ui-monospace, monospace" font-size="19" letter-spacing="0.04em" fill="#FBFDFD" text-anchor="middle">α-MSH</text>
<text x="600" y="126" font-family="IBM Plex Mono, ui-monospace, monospace" font-size="14" letter-spacing="0.04em" fill="#8FB3B9" text-anchor="middle">ligand</text>
<text x="770" y="408" font-family="IBM Plex Mono, ui-monospace, monospace" font-size="19" letter-spacing="0.04em" fill="#FBFDFD" text-anchor="start">MC4R</text>
<text x="770" y="430" font-family="IBM Plex Mono, ui-monospace, monospace" font-size="14" letter-spacing="0.04em" fill="#8FB3B9" text-anchor="start">7-transmembrane GPCR</text>
<line x1="744" y1="402" x2="712" y2="402" stroke="#8FB3B9" stroke-width="1.2" opacity="0.6"/>
<text x="700" y="576" font-family="IBM Plex Mono, ui-monospace, monospace" font-size="14" letter-spacing="0.04em" fill="#8FB3B9" text-anchor="start">Gαs → cAMP</text>
<line x1="688" y1="570" x2="672" y2="566" stroke="#8FB3B9" stroke-width="1.2" opacity="0.6"/>
</svg>
