<svg xmlns="http://www.w3.org/2000/svg" width="1200" height="400" viewBox="0 0 1200 400" role="img">
<defs></defs>

<rect width="1200" height="400" fill="#FBFDFD"/>
<line x1="41.9" y1="46.4" x2="69.3" y2="122.6" stroke="#0C6B73" stroke-width="1" opacity="0.046"/>
<line x1="154.7" y1="42.6" x2="228.3" y2="47.5" stroke="#0C6B73" stroke-width="1" opacity="0.050"/>
<line x1="154.7" y1="42.6" x2="179.4" y2="137.7" stroke="#0C6B73" stroke-width="1" opacity="0.034"/>
<line x1="228.3" y1="47.5" x2="306.1" y2="44.5" stroke="#0C6B73" stroke-width="1" opacity="0.048"/>
<line x1="228.3" y1="47.5" x2="179.4" y2="137.7" stroke="#0C6B73" stroke-width="1" opacity="0.031"/>
<line x1="228.3" y1="47.5" x2="274.8" y2="129.6" stroke="#0C6B73" stroke-width="1" opacity="0.036"/>
<line x1="306.1" y1="44.5" x2="274.8" y2="129.6" stroke="#0C6B73" stroke-width="1" opacity="0.039"/>
<line x1="417.7" y1="55.7" x2="486.1" y2="36.1" stroke="#0C6B73" stroke-width="1" opacity="0.052"/>
<line x1="417.7" y1="55.7" x2="366.0" y2="130.5" stroke="#0C6B73" stroke-width="1" opacity="0.039"/>
<line x1="417.7" y1="55.7" x2="456.1" y2="115.1" stroke="#0C6B73" stroke-width="1" opacity="0.052"/>
<line x1="486.1" y1="36.1" x2="578.0" y2="56.4" stroke="#0C6B73" stroke-width="1" opacity="0.037"/>
<line x1="486.1" y1="36.1" x2="456.1" y2="115.1" stroke="#0C6B73" stroke-width="1" opacity="0.043"/>
<line x1="578.0" y1="56.4" x2="571.9" y2="143.8" stroke="#0C6B73" stroke-width="1" opacity="0.041"/>
<line x1="696.5" y1="25.7" x2="725.9" y2="113.2" stroke="#0C6B73" stroke-width="1" opacity="0.038"/>
<line x1="801.2" y1="62.6" x2="878.8" y2="48.6" stroke="#0C6B73" stroke-width="1" opacity="0.047"/>
<line x1="801.2" y1="62.6" x2="725.9" y2="113.2" stroke="#0C6B73" stroke-width="1" opacity="0.039"/>
<line x1="801.2" y1="62.6" x2="816.7" y2="106.8" stroke="#0C6B73" stroke-width="1" opacity="0.068"/>
<line x1="878.8" y1="48.6" x2="948.9" y2="24.6" stroke="#0C6B73" stroke-width="1" opacity="0.050"/>
<line x1="878.8" y1="48.6" x2="816.7" y2="106.8" stroke="#0C6B73" stroke-width="1" opacity="0.043"/>
<line x1="878.8" y1="48.6" x2="929.7" y2="120.0" stroke="#0C6B73" stroke-width="1" opacity="0.041"/>
<line x1="948.9" y1="24.6" x2="929.7" y2="120.0" stroke="#0C6B73" stroke-width="1" opacity="0.034"/>
<line x1="1057.2" y1="26.4" x2="1134.4" y2="33.7" stroke="#0C6B73" stroke-width="1" opacity="0.048"/>
<line x1="1057.2" y1="26.4" x2="1025.2" y2="119.5" stroke="#0C6B73" stroke-width="1" opacity="0.034"/>
<line x1="69.3" y1="122.6" x2="22.0" y2="192.4" stroke="#0C6B73" stroke-width="1" opacity="0.043"/>
<line x1="179.4" y1="137.7" x2="274.8" y2="129.6" stroke="#0C6B73" stroke-width="1" opacity="0.036"/>
<line x1="179.4" y1="137.7" x2="154.1" y2="202.8" stroke="#0C6B73" stroke-width="1" opacity="0.053"/>
<line x1="179.4" y1="137.7" x2="249.1" y2="199.9" stroke="#0C6B73" stroke-width="1" opacity="0.037"/>
<line x1="274.8" y1="129.6" x2="366.0" y2="130.5" stroke="#0C6B73" stroke-width="1" opacity="0.039"/>
<line x1="274.8" y1="129.6" x2="249.1" y2="199.9" stroke="#0C6B73" stroke-width="1" opacity="0.050"/>
<line x1="274.8" y1="129.6" x2="301.2" y2="209.2" stroke="#0C6B73" stroke-width="1" opacity="0.044"/>
<line x1="366.0" y1="130.5" x2="456.1" y2="115.1" stroke="#0C6B73" stroke-width="1" opacity="0.038"/>
<line x1="366.0" y1="130.5" x2="301.2" y2="209.2" stroke="#0C6B73" stroke-width="1" opacity="0.031"/>
<line x1="366.0" y1="130.5" x2="424.3" y2="194.8" stroke="#0C6B73" stroke-width="1" opacity="0.042"/>
<line x1="456.1" y1="115.1" x2="424.3" y2="194.8" stroke="#0C6B73" stroke-width="1" opacity="0.042"/>
<line x1="456.1" y1="115.1" x2="485.8" y2="197.3" stroke="#0C6B73" stroke-width="1" opacity="0.041"/>
<line x1="571.9" y1="143.8" x2="657.0" y2="132.3" stroke="#0C6B73" stroke-width="1" opacity="0.042"/>
<line x1="571.9" y1="143.8" x2="485.8" y2="197.3" stroke="#0C6B73" stroke-width="1" opacity="0.032"/>
<line x1="571.9" y1="143.8" x2="616.4" y2="214.3" stroke="#0C6B73" stroke-width="1" opacity="0.044"/>
<line x1="657.0" y1="132.3" x2="725.9" y2="113.2" stroke="#0C6B73" stroke-width="1" opacity="0.052"/>
<line x1="657.0" y1="132.3" x2="616.4" y2="214.3" stroke="#0C6B73" stroke-width="1" opacity="0.038"/>
<line x1="657.0" y1="132.3" x2="671.2" y2="193.9" stroke="#0C6B73" stroke-width="1" opacity="0.057"/>
<line x1="725.9" y1="113.2" x2="816.7" y2="106.8" stroke="#0C6B73" stroke-width="1" opacity="0.039"/>
<line x1="725.9" y1="113.2" x2="671.2" y2="193.9" stroke="#0C6B73" stroke-width="1" opacity="0.034"/>
<line x1="725.9" y1="113.2" x2="762.4" y2="186.4" stroke="#0C6B73" stroke-width="1" opacity="0.045"/>
<line x1="816.7" y1="106.8" x2="762.4" y2="186.4" stroke="#0C6B73" stroke-width="1" opacity="0.035"/>
<line x1="929.7" y1="120.0" x2="1025.2" y2="119.5" stroke="#0C6B73" stroke-width="1" opacity="0.036"/>
<line x1="929.7" y1="120.0" x2="885.1" y2="191.1" stroke="#0C6B73" stroke-width="1" opacity="0.043"/>
<line x1="929.7" y1="120.0" x2="966.6" y2="201.9" stroke="#0C6B73" stroke-width="1" opacity="0.040"/>
<line x1="1025.2" y1="119.5" x2="1122.2" y2="137.9" stroke="#0C6B73" stroke-width="1" opacity="0.034"/>
<line x1="1025.2" y1="119.5" x2="966.6" y2="201.9" stroke="#0C6B73" stroke-width="1" opacity="0.032"/>
<line x1="1025.2" y1="119.5" x2="1042.4" y2="213.3" stroke="#0C6B73" stroke-width="1" opacity="0.036"/>
<line x1="1122.2" y1="137.9" x2="1131.8" y2="209.7" stroke="#0C6B73" stroke-width="1" opacity="0.051"/>
<line x1="22.0" y1="192.4" x2="73.1" y2="280.8" stroke="#0C6B73" stroke-width="1" opacity="0.031"/>
<line x1="154.1" y1="202.8" x2="249.1" y2="199.9" stroke="#0C6B73" stroke-width="1" opacity="0.036"/>
<line x1="154.1" y1="202.8" x2="169.4" y2="274.8" stroke="#0C6B73" stroke-width="1" opacity="0.050"/>
<line x1="249.1" y1="199.9" x2="301.2" y2="209.2" stroke="#0C6B73" stroke-width="1" opacity="0.064"/>
<line x1="301.2" y1="209.2" x2="294.7" y2="296.1" stroke="#0C6B73" stroke-width="1" opacity="0.041"/>
<line x1="424.3" y1="194.8" x2="485.8" y2="197.3" stroke="#0C6B73" stroke-width="1" opacity="0.059"/>
<line x1="424.3" y1="194.8" x2="445.3" y2="279.8" stroke="#0C6B73" stroke-width="1" opacity="0.041"/>
<line x1="485.8" y1="197.3" x2="445.3" y2="279.8" stroke="#0C6B73" stroke-width="1" opacity="0.038"/>
<line x1="616.4" y1="214.3" x2="671.2" y2="193.9" stroke="#0C6B73" stroke-width="1" opacity="0.061"/>
<line x1="616.4" y1="214.3" x2="565.6" y2="289.7" stroke="#0C6B73" stroke-width="1" opacity="0.039"/>
<line x1="616.4" y1="214.3" x2="624.4" y2="303.6" stroke="#0C6B73" stroke-width="1" opacity="0.040"/>
<line x1="671.2" y1="193.9" x2="762.4" y2="186.4" stroke="#0C6B73" stroke-width="1" opacity="0.038"/>
<line x1="671.2" y1="193.9" x2="721.4" y2="274.3" stroke="#0C6B73" stroke-width="1" opacity="0.036"/>
<line x1="762.4" y1="186.4" x2="721.4" y2="274.3" stroke="#0C6B73" stroke-width="1" opacity="0.035"/>
<line x1="885.1" y1="191.1" x2="966.6" y2="201.9" stroke="#0C6B73" stroke-width="1" opacity="0.045"/>
<line x1="885.1" y1="191.1" x2="838.0" y2="277.2" stroke="#0C6B73" stroke-width="1" opacity="0.034"/>
<line x1="885.1" y1="191.1" x2="909.0" y2="266.9" stroke="#0C6B73" stroke-width="1" opacity="0.046"/>
<line x1="966.6" y1="201.9" x2="1042.4" y2="213.3" stroke="#0C6B73" stroke-width="1" opacity="0.048"/>
<line x1="966.6" y1="201.9" x2="909.0" y2="266.9" stroke="#0C6B73" stroke-width="1" opacity="0.042"/>
<line x1="966.6" y1="201.9" x2="992.0" y2="287.3" stroke="#0C6B73" stroke-width="1" opacity="0.040"/>
<line x1="1042.4" y1="213.3" x2="1131.8" y2="209.7" stroke="#0C6B73" stroke-width="1" opacity="0.040"/>
<line x1="1042.4" y1="213.3" x2="992.0" y2="287.3" stroke="#0C6B73" stroke-width="1" opacity="0.040"/>
<line x1="1042.4" y1="213.3" x2="1090.7" y2="288.1" stroke="#0C6B73" stroke-width="1" opacity="0.040"/>
<line x1="1131.8" y1="209.7" x2="1090.7" y2="288.1" stroke="#0C6B73" stroke-width="1" opacity="0.040"/>
<line x1="73.1" y1="280.8" x2="169.4" y2="274.8" stroke="#0C6B73" stroke-width="1" opacity="0.035"/>
<line x1="73.1" y1="280.8" x2="38.4" y2="362.1" stroke="#0C6B73" stroke-width="1" opacity="0.040"/>
<line x1="169.4" y1="274.8" x2="156.2" y2="363.3" stroke="#0C6B73" stroke-width="1" opacity="0.040"/>
<line x1="294.7" y1="296.1" x2="357.4" y2="299.4" stroke="#0C6B73" stroke-width="1" opacity="0.058"/>
<line x1="294.7" y1="296.1" x2="306.0" y2="350.2" stroke="#0C6B73" stroke-width="1" opacity="0.063"/>
<line x1="357.4" y1="299.4" x2="445.3" y2="279.8" stroke="#0C6B73" stroke-width="1" opacity="0.039"/>
<line x1="357.4" y1="299.4" x2="306.0" y2="350.2" stroke="#0C6B73" stroke-width="1" opacity="0.051"/>
<line x1="445.3" y1="279.8" x2="430.0" y2="376.7" stroke="#0C6B73" stroke-width="1" opacity="0.034"/>
<line x1="445.3" y1="279.8" x2="493.0" y2="351.6" stroke="#0C6B73" stroke-width="1" opacity="0.042"/>
<line x1="565.6" y1="289.7" x2="624.4" y2="303.6" stroke="#0C6B73" stroke-width="1" opacity="0.059"/>
<line x1="565.6" y1="289.7" x2="493.0" y2="351.6" stroke="#0C6B73" stroke-width="1" opacity="0.036"/>
<line x1="565.6" y1="289.7" x2="606.5" y2="381.6" stroke="#0C6B73" stroke-width="1" opacity="0.032"/>
<line x1="624.4" y1="303.6" x2="721.4" y2="274.3" stroke="#0C6B73" stroke-width="1" opacity="0.032"/>
<line x1="624.4" y1="303.6" x2="606.5" y2="381.6" stroke="#0C6B73" stroke-width="1" opacity="0.046"/>
<line x1="624.4" y1="303.6" x2="674.6" y2="382.0" stroke="#0C6B73" stroke-width="1" opacity="0.037"/>
<line x1="838.0" y1="277.2" x2="909.0" y2="266.9" stroke="#0C6B73" stroke-width="1" opacity="0.052"/>
<line x1="838.0" y1="277.2" x2="796.8" y2="368.1" stroke="#0C6B73" stroke-width="1" opacity="0.033"/>
<line x1="838.0" y1="277.2" x2="868.5" y2="348.2" stroke="#0C6B73" stroke-width="1" opacity="0.048"/>
<line x1="909.0" y1="266.9" x2="992.0" y2="287.3" stroke="#0C6B73" stroke-width="1" opacity="0.043"/>
<line x1="909.0" y1="266.9" x2="868.5" y2="348.2" stroke="#0C6B73" stroke-width="1" opacity="0.039"/>
<line x1="992.0" y1="287.3" x2="1090.7" y2="288.1" stroke="#0C6B73" stroke-width="1" opacity="0.034"/>
<line x1="992.0" y1="287.3" x2="1044.5" y2="372.2" stroke="#0C6B73" stroke-width="1" opacity="0.033"/>
<line x1="1090.7" y1="288.1" x2="1044.5" y2="372.2" stroke="#0C6B73" stroke-width="1" opacity="0.035"/>
<line x1="1090.7" y1="288.1" x2="1137.3" y2="376.9" stroke="#0C6B73" stroke-width="1" opacity="0.032"/>
<line x1="156.2" y1="363.3" x2="231.3" y2="378.7" stroke="#0C6B73" stroke-width="1" opacity="0.048"/>
<line x1="231.3" y1="378.7" x2="306.0" y2="350.2" stroke="#0C6B73" stroke-width="1" opacity="0.046"/>
<line x1="430.0" y1="376.7" x2="493.0" y2="351.6" stroke="#0C6B73" stroke-width="1" opacity="0.054"/>
<line x1="606.5" y1="381.6" x2="674.6" y2="382.0" stroke="#0C6B73" stroke-width="1" opacity="0.054"/>
<line x1="796.8" y1="368.1" x2="868.5" y2="348.2" stroke="#0C6B73" stroke-width="1" opacity="0.050"/>
<line x1="868.5" y1="348.2" x2="943.7" y2="382.5" stroke="#0C6B73" stroke-width="1" opacity="0.044"/>
<line x1="943.7" y1="382.5" x2="1044.5" y2="372.2" stroke="#0C6B73" stroke-width="1" opacity="0.032"/>
<line x1="1044.5" y1="372.2" x2="1137.3" y2="376.9" stroke="#0C6B73" stroke-width="1" opacity="0.037"/>
<circle cx="41.9" cy="46.4" r="3.2" fill="#1FC8C2" opacity="0.42"/>
<circle cx="154.7" cy="42.6" r="2.4" fill="#163E5C" opacity="0.20"/>
<circle cx="228.3" cy="47.5" r="2.4" fill="#163E5C" opacity="0.20"/>
<circle cx="306.1" cy="44.5" r="2.4" fill="#163E5C" opacity="0.20"/>
<circle cx="417.7" cy="55.7" r="2.4" fill="#163E5C" opacity="0.20"/>
<circle cx="486.1" cy="36.1" r="2.4" fill="#163E5C" opacity="0.20"/>
<circle cx="578.0" cy="56.4" r="2.4" fill="#163E5C" opacity="0.20"/>
<circle cx="696.5" cy="25.7" r="2.4" fill="#163E5C" opacity="0.20"/>
<circle cx="801.2" cy="62.6" r="2.4" fill="#163E5C" opacity="0.20"/>
<circle cx="878.8" cy="48.6" r="2.4" fill="#163E5C" opacity="0.20"/>
<circle cx="948.9" cy="24.6" r="2.4" fill="#163E5C" opacity="0.20"/>
<circle cx="1057.2" cy="26.4" r="2.4" fill="#163E5C" opacity="0.20"/>
<circle cx="1134.4" cy="33.7" r="2.4" fill="#163E5C" opacity="0.20"/>
<circle cx="69.3" cy="122.6" r="3.2" fill="#1FC8C2" opacity="0.42"/>
<circle cx="179.4" cy="137.7" r="2.4" fill="#163E5C" opacity="0.20"/>
<circle cx="274.8" cy="129.6" r="2.4" fill="#163E5C" opacity="0.20"/>
<circle cx="366.0" cy="130.5" r="2.4" fill="#163E5C" opacity="0.20"/>
<circle cx="456.1" cy="115.1" r="2.4" fill="#163E5C" opacity="0.20"/>
<circle cx="571.9" cy="143.8" r="2.4" fill="#163E5C" opacity="0.20"/>
<circle cx="657.0" cy="132.3" r="2.4" fill="#163E5C" opacity="0.20"/>
<circle cx="725.9" cy="113.2" r="2.4" fill="#163E5C" opacity="0.20"/>
<circle cx="816.7" cy="106.8" r="2.4" fill="#163E5C" opacity="0.20"/>
<circle cx="929.7" cy="120.0" r="2.4" fill="#163E5C" opacity="0.20"/>
<circle cx="1025.2" cy="119.5" r="2.4" fill="#163E5C" opacity="0.20"/>
<circle cx="1122.2" cy="137.9" r="2.4" fill="#163E5C" opacity="0.20"/>
<circle cx="22.0" cy="192.4" r="2.4" fill="#163E5C" opacity="0.20"/>
<circle cx="154.1" cy="202.8" r="3.2" fill="#1FC8C2" opacity="0.42"/>
<circle cx="249.1" cy="199.9" r="2.4" fill="#163E5C" opacity="0.20"/>
<circle cx="301.2" cy="209.2" r="2.4" fill="#163E5C" opacity="0.20"/>
<circle cx="424.3" cy="194.8" r="2.4" fill="#163E5C" opacity="0.20"/>
<circle cx="485.8" cy="197.3" r="2.4" fill="#163E5C" opacity="0.20"/>
<circle cx="616.4" cy="214.3" r="2.4" fill="#163E5C" opacity="0.20"/>
<circle cx="671.2" cy="193.9" r="2.4" fill="#163E5C" opacity="0.20"/>
<circle cx="762.4" cy="186.4" r="2.4" fill="#163E5C" opacity="0.20"/>
<circle cx="885.1" cy="191.1" r="2.4" fill="#163E5C" opacity="0.20"/>
<circle cx="966.6" cy="201.9" r="2.4" fill="#163E5C" opacity="0.20"/>
<circle cx="1042.4" cy="213.3" r="2.4" fill="#163E5C" opacity="0.20"/>
<circle cx="1131.8" cy="209.7" r="2.4" fill="#163E5C" opacity="0.20"/>
<circle cx="73.1" cy="280.8" r="2.4" fill="#163E5C" opacity="0.20"/>
<circle cx="169.4" cy="274.8" r="3.2" fill="#1FC8C2" opacity="0.42"/>
<circle cx="294.7" cy="296.1" r="2.4" fill="#163E5C" opacity="0.20"/>
<circle cx="357.4" cy="299.4" r="2.4" fill="#163E5C" opacity="0.20"/>
<circle cx="445.3" cy="279.8" r="2.4" fill="#163E5C" opacity="0.20"/>
<circle cx="565.6" cy="289.7" r="2.4" fill="#163E5C" opacity="0.20"/>
<circle cx="624.4" cy="303.6" r="2.4" fill="#163E5C" opacity="0.20"/>
<circle cx="721.4" cy="274.3" r="2.4" fill="#163E5C" opacity="0.20"/>
<circle cx="838.0" cy="277.2" r="2.4" fill="#163E5C" opacity="0.20"/>
<circle cx="909.0" cy="266.9" r="2.4" fill="#163E5C" opacity="0.20"/>
<circle cx="992.0" cy="287.3" r="2.4" fill="#163E5C" opacity="0.20"/>
<circle cx="1090.7" cy="288.1" r="2.4" fill="#163E5C" opacity="0.20"/>
<circle cx="38.4" cy="362.1" r="2.4" fill="#163E5C" opacity="0.20"/>
<circle cx="156.2" cy="363.3" r="2.4" fill="#163E5C" opacity="0.20"/>
<circle cx="231.3" cy="378.7" r="3.2" fill="#1FC8C2" opacity="0.42"/>
<circle cx="306.0" cy="350.2" r="2.4" fill="#163E5C" opacity="0.20"/>
<circle cx="430.0" cy="376.7" r="2.4" fill="#163E5C" opacity="0.20"/>
<circle cx="493.0" cy="351.6" r="2.4" fill="#163E5C" opacity="0.20"/>
<circle cx="606.5" cy="381.6" r="2.4" fill="#163E5C" opacity="0.20"/>
<circle cx="674.6" cy="382.0" r="2.4" fill="#163E5C" opacity="0.20"/>
<circle cx="796.8" cy="368.1" r="2.4" fill="#163E5C" opacity="0.20"/>
<circle cx="868.5" cy="348.2" r="2.4" fill="#163E5C" opacity="0.20"/>
<circle cx="943.7" cy="382.5" r="2.4" fill="#163E5C" opacity="0.20"/>
<circle cx="1044.5" cy="372.2" r="2.4" fill="#163E5C" opacity="0.20"/>
<circle cx="1137.3" cy="376.9" r="2.4" fill="#163E5C" opacity="0.20"/>
</svg>
