<svg xmlns="http://www.w3.org/2000/svg" width="1200" height="420" viewBox="0 0 1200 420" role="img">
<defs></defs>

<rect width="1200" height="420" fill="#08171F"/>
<text x="600.0" y="60" font-family="IBM Plex Mono, ui-monospace, monospace" font-size="15" letter-spacing="0.03em" fill="#8FB3B9" text-anchor="middle">THE FIVE RECEPTORS</text>
<line x1="80" y1="92" x2="1120" y2="92" stroke="#173241" stroke-width="1"/>
<rect x="63.5" y="181.5" width="11" height="37" rx="5.5" fill="#2C6E76"/>
<rect x="80.5" y="180.0" width="11" height="40" rx="5.5" fill="#2C6E76"/>
<rect x="97.5" y="178.5" width="11" height="43" rx="5.5" fill="#2C6E76"/>
<rect x="114.5" y="177.0" width="11" height="46" rx="5.5" fill="#1FC8C2"/>
<rect x="131.5" y="178.5" width="11" height="43" rx="5.5" fill="#2C6E76"/>
<rect x="148.5" y="180.0" width="11" height="40" rx="5.5" fill="#2C6E76"/>
<rect x="165.5" y="181.5" width="11" height="37" rx="5.5" fill="#2C6E76"/>
<text x="120.0" y="264" font-family="Space Grotesk, system-ui, sans-serif" font-size="24" letter-spacing="0.03em" fill="#FBFDFD" text-anchor="middle">MC1R</text>
<text x="120.0" y="292" font-family="IBM Plex Mono, ui-monospace, monospace" font-size="13.5" letter-spacing="0.03em" fill="#8FB3B9" text-anchor="middle">skin · pigment</text>
<rect x="53.7" y="308" width="132.6" height="26" rx="13" fill="#0E2A33" stroke="#1E4E6B"/>
<text x="120.0" y="325" font-family="IBM Plex Mono, ui-monospace, monospace" font-size="12.5" letter-spacing="0.03em" fill="#1FC8C2" text-anchor="middle">afamelanotide</text>
<line x1="240.0" y1="150" x2="240.0" y2="300" stroke="#142B38" stroke-width="1"/>
<rect x="303.5" y="181.5" width="11" height="37" rx="5.5" fill="#2C6E76"/>
<rect x="320.5" y="180.0" width="11" height="40" rx="5.5" fill="#2C6E76"/>
<rect x="337.5" y="178.5" width="11" height="43" rx="5.5" fill="#2C6E76"/>
<rect x="354.5" y="177.0" width="11" height="46" rx="5.5" fill="#1FC8C2"/>
<rect x="371.5" y="178.5" width="11" height="43" rx="5.5" fill="#2C6E76"/>
<rect x="388.5" y="180.0" width="11" height="40" rx="5.5" fill="#2C6E76"/>
<rect x="405.5" y="181.5" width="11" height="37" rx="5.5" fill="#2C6E76"/>
<text x="360.0" y="264" font-family="Space Grotesk, system-ui, sans-serif" font-size="24" letter-spacing="0.03em" fill="#FBFDFD" text-anchor="middle">MC2R</text>
<text x="360.0" y="292" font-family="IBM Plex Mono, ui-monospace, monospace" font-size="13.5" letter-spacing="0.03em" fill="#8FB3B9" text-anchor="middle">adrenal · cortisol</text>
<text x="360.0" y="325" font-family="IBM Plex Mono, ui-monospace, monospace" font-size="13" letter-spacing="0.03em" fill="#3E5560" text-anchor="middle">—</text>
<line x1="480.0" y1="150" x2="480.0" y2="300" stroke="#142B38" stroke-width="1"/>
<rect x="543.5" y="181.5" width="11" height="37" rx="5.5" fill="#2C6E76"/>
<rect x="560.5" y="180.0" width="11" height="40" rx="5.5" fill="#2C6E76"/>
<rect x="577.5" y="178.5" width="11" height="43" rx="5.5" fill="#2C6E76"/>
<rect x="594.5" y="177.0" width="11" height="46" rx="5.5" fill="#1FC8C2"/>
<rect x="611.5" y="178.5" width="11" height="43" rx="5.5" fill="#2C6E76"/>
<rect x="628.5" y="180.0" width="11" height="40" rx="5.5" fill="#2C6E76"/>
<rect x="645.5" y="181.5" width="11" height="37" rx="5.5" fill="#2C6E76"/>
<text x="600.0" y="264" font-family="Space Grotesk, system-ui, sans-serif" font-size="24" letter-spacing="0.03em" fill="#FBFDFD" text-anchor="middle">MC3R</text>
<text x="600.0" y="292" font-family="IBM Plex Mono, ui-monospace, monospace" font-size="13.5" letter-spacing="0.03em" fill="#8FB3B9" text-anchor="middle">energy balance</text>
<rect x="525.5" y="308" width="149.0" height="26" rx="13" fill="#0E2A33" stroke="#1E4E6B"/>
<text x="600.0" y="325" font-family="IBM Plex Mono, ui-monospace, monospace" font-size="12.5" letter-spacing="0.03em" fill="#1FC8C2" text-anchor="middle">investigational</text>
<line x1="720.0" y1="150" x2="720.0" y2="300" stroke="#142B38" stroke-width="1"/>
<rect x="783.5" y="181.5" width="11" height="37" rx="5.5" fill="#2C6E76"/>
<rect x="800.5" y="180.0" width="11" height="40" rx="5.5" fill="#2C6E76"/>
<rect x="817.5" y="178.5" width="11" height="43" rx="5.5" fill="#2C6E76"/>
<rect x="834.5" y="177.0" width="11" height="46" rx="5.5" fill="#1FC8C2"/>
<rect x="851.5" y="178.5" width="11" height="43" rx="5.5" fill="#2C6E76"/>
<rect x="868.5" y="180.0" width="11" height="40" rx="5.5" fill="#2C6E76"/>
<rect x="885.5" y="181.5" width="11" height="37" rx="5.5" fill="#2C6E76"/>
<text x="840.0" y="264" font-family="Space Grotesk, system-ui, sans-serif" font-size="24" letter-spacing="0.03em" fill="#FBFDFD" text-anchor="middle">MC4R</text>
<text x="840.0" y="292" font-family="IBM Plex Mono, ui-monospace, monospace" font-size="13.5" letter-spacing="0.03em" fill="#8FB3B9" text-anchor="middle">appetite · satiety</text>
<rect x="773.7" y="308" width="132.6" height="26" rx="13" fill="#0E2A33" stroke="#1E4E6B"/>
<text x="840.0" y="325" font-family="IBM Plex Mono, ui-monospace, monospace" font-size="12.5" letter-spacing="0.03em" fill="#1FC8C2" text-anchor="middle">setmelanotide</text>
<line x1="960.0" y1="150" x2="960.0" y2="300" stroke="#142B38" stroke-width="1"/>
<rect x="1023.5" y="181.5" width="11" height="37" rx="5.5" fill="#2C6E76"/>
<rect x="1040.5" y="180.0" width="11" height="40" rx="5.5" fill="#2C6E76"/>
<rect x="1057.5" y="178.5" width="11" height="43" rx="5.5" fill="#2C6E76"/>
<rect x="1074.5" y="177.0" width="11" height="46" rx="5.5" fill="#1FC8C2"/>
<rect x="1091.5" y="178.5" width="11" height="43" rx="5.5" fill="#2C6E76"/>
<rect x="1108.5" y="180.0" width="11" height="40" rx="5.5" fill="#2C6E76"/>
<rect x="1125.5" y="181.5" width="11" height="37" rx="5.5" fill="#2C6E76"/>
<text x="1080.0" y="264" font-family="Space Grotesk, system-ui, sans-serif" font-size="24" letter-spacing="0.03em" fill="#FBFDFD" text-anchor="middle">MC5R</text>
<text x="1080.0" y="292" font-family="IBM Plex Mono, ui-monospace, monospace" font-size="13.5" letter-spacing="0.03em" fill="#8FB3B9" text-anchor="middle">exocrine glands</text>
<text x="1080.0" y="325" font-family="IBM Plex Mono, ui-monospace, monospace" font-size="13" letter-spacing="0.03em" fill="#3E5560" text-anchor="middle">—</text>
</svg>
